<?xml version="1.0" encoding="UTF-8"?>
<svg id="Layer_2" data-name="Layer 2" xmlns="http://www.w3.org/2000/svg" viewBox="0 0 150.97 150.97">
  <defs>
    <style>
      .cls-1 {
        fill: #fff;
      }

      .cls-2 {
        fill: #034694;
      }

      .cls-3 {
        fill: #a6ce39;
      }
    </style>
  </defs>
  <g id="Layer_1-2" data-name="Layer 1">
    <g>
      <path class="cls-1" d="M147.48,75.48c0,39.76-32.24,72-72,72S3.48,115.25,3.48,75.48,35.72,3.48,75.48,3.48s72,32.24,72,72"/>
      <path class="cls-3" d="M75.48,150.97C33.86,150.97,0,117.11,0,75.48S33.86,0,75.48,0s75.48,33.86,75.48,75.48-33.86,75.48-75.48,75.48ZM75.48,6.97C37.7,6.97,6.97,37.7,6.97,75.48s30.74,68.52,68.52,68.52,68.52-30.74,68.52-68.52S113.26,6.97,75.48,6.97Z"/>
      <path class="cls-2" d="M135.11,86.25l-4.16,4.6c-.55.55-1.23,1.24-2.03,2.1-.8.85-1.7,1.75-2.68,2.71-.99.95-2.07,1.88-3.24,2.76-1.17.89-2.34,1.67-3.51,2.35,1.05-1.57,1.59-3.65,1.62-6.24.03-2.59,0-5.37-.09-8.33-.09-2.97-.03-5.93.18-8.89.21-2.96,1.03-5.57,2.45-7.82.43-.68,1.12-1.48,2.08-2.4.96-.92,2.03-1.77,3.24-2.56,1.2-.78,2.48-1.38,3.84-1.79,1.35-.41,2.65-.47,3.88-.2.37-.41.09-1.09-.83-2.04-.92-.95-2.1-1.91-3.51-2.86-1.42-.95-2.91-1.77-4.48-2.45-1.57-.68-2.79-.99-3.65-.92-1.6.21-3.02.58-4.25,1.12-1.23.55-2.31,1.16-3.24,1.84-.92.68-1.76,1.43-2.5,2.25-.74.82-1.42,1.64-2.03,2.45l-.09.1-1.85,1.94-15.16,21.26-1.39,1.74c-.06.16-.09.3-.14.45-1.69,2.22-3.38,4.44-5.08,6.71-2,2.66-3.87,4.87-5.59,6.65-.25.27-.65.68-1.2,1.23-.55.55-1.11.97-1.66,1.28-.55.31-1.02.36-1.39.15-.37-.21-.46-.92-.28-2.15.19-1.02.57-2.3,1.16-3.83.59-1.53,1.19-3,1.8-4.4.62-1.4,1.39-3.08,2.31-5.06.92-1.98,1.72-3.51,2.4-4.6.68-1.09.86-2.11.55-3.07-.37-1.02-1.17-2.11-2.4-3.27-1.23-1.16-2.53-2.23-3.88-3.22-1.36-.99-2.57-1.77-3.65-2.35-1.08-.58-1.65-.83-1.71-.77l-2.59,6.44c-.5.82-1.2,1.91-2.13,3.27-.92,1.36-1.97,2.81-3.14,4.34-1.17,1.53-2.42,3.12-3.74,4.75-1.33,1.64-2.63,3.19-3.93,4.65-1.29,1.47-2.53,2.74-3.7,3.83-1.17,1.09-2.16,1.88-2.96,2.35-.99.55-1.73.7-2.22.46-.49-.24-.55-.77-.18-1.58.43-1.09,1.11-2.54,2.03-4.34.92-1.81,1.85-3.6,2.77-5.37.92-1.77,1.76-3.31,2.49-4.6.74-1.29,1.11-1.98,1.11-2.04.68-1.16,1.6-2.66,2.77-4.5,1.17-1.84,2.48-3.63,3.93-5.37,1.45-1.74,2.96-3.22,4.53-4.45,1.57-1.23,3.1-1.84,4.58-1.84s2.6.29,3.19.87c.59.58,1.03,1.21,1.34,1.89.31.68.63,1.29.97,1.84.34.55,1.06.82,2.17.82.99,0,1.6-.37,1.85-1.12.25-.75.25-1.57,0-2.45-.25-.95-.77-1.93-1.57-2.91-.8-.99-1.82-1.87-3.05-2.66-1.23-.78-2.68-1.41-4.34-1.89-1.66-.48-3.45-.72-5.36-.72-3.14,0-5.99.65-8.55,1.94-2.56,1.29-4.84,2.9-6.84,4.8-2,1.91-3.74,3.92-5.22,6.03-1.48,2.11-2.71,3.99-3.7,5.62-.36.6-.71,1.19-1.05,1.79l-4.22,5.68c-1.97,2.59-3.96,5.21-5.96,7.87-2,2.66-3.87,4.87-5.59,6.65-.25.27-.69.66-1.34,1.18-.65.51-1.26.9-1.85,1.18-.59.27-1.05.32-1.39.15-.34-.17-.32-.83.05-1.99.25-.68.66-1.69,1.25-3.02.59-1.33,1.23-2.83,1.94-4.5.71-1.67,1.45-3.36,2.22-5.06.77-1.7,1.46-3.27,2.08-4.7.61-1.43,1.32-3.03,2.13-4.81.92-1.91,1.45-3.53,1.57-4.86.12-1.33.03-2.47-.28-3.43-.25-.68-.72-1.43-1.43-2.25-.71-.82-1.56-1.64-2.54-2.45-.99-.82-2.02-1.62-3.1-2.4-1.08-.78-2.07-1.46-2.96-2.04-.89-.58-1.62-1.04-2.17-1.38-.55-.34-.83-.48-.83-.41.18.82.21,1.59.09,2.3-.12.72-.37,1.76-.74,3.12-.12.48-.36,1.41-.69,2.81-.34,1.4-.75,3.12-1.25,5.16-.49,2.04-1.06,4.28-1.71,6.7-.65,2.42-1.28,4.87-1.89,7.36-.62,2.49-1.23,4.92-1.85,7.31-.62,2.39-1.14,4.5-1.57,6.34-.31,1.57-.15,3,.46,4.29.62,1.3,1.45,2.4,2.5,3.32,1.05.92,2.2,1.6,3.47,2.04,1.26.44,2.42.6,3.47.46,1.6-.2,3.3-.9,5.08-2.09,1.79-1.19,3.48-2.74,5.08-4.65,1.6-1.77,3.11-3.7,4.53-5.78.17-.25.34-.49.51-.74-.47,2.27-.67,4.31-.6,6.1.06.96.35,1.79.88,2.51.53.71,1.22,1.38,2.08,1.99.86.61,1.83,1.18,2.91,1.69,1.08.51,2.23.97,3.46,1.38.93.34,2.06.15,3.42-.56,1.35-.72,2.79-1.72,4.3-3.02,1.51-1.29,3.05-2.79,4.62-4.5,1.57-1.7,3-3.37,4.3-5.01,1.29-1.64,2.39-3.17,3.28-4.6.89-1.43,1.46-2.49,1.71-3.17,0,.34-.05.89-.14,1.64-.09.75-.18,1.6-.28,2.56-.09.96-.17,1.94-.23,2.96-.06,1.02-.09,1.94-.09,2.76,0,1.5.26,2.9.79,4.19.52,1.29,1.23,2.42,2.13,3.37.89.96,1.91,1.69,3.05,2.2,1.14.51,2.29.77,3.47.77,1.66-.07,3.37-.73,5.13-1.99,1.76-1.26,3.43-2.85,5.04-4.75.97-1.08,1.9-2.23,2.81-3.42.35,3.21,1.69,5.7,4.03,7.46,2.4,1.81,5.36,2.91,8.87,3.32,3.02.34,6.13,0,9.34-1.02,3.2-1.02,6.25-2.44,9.15-4.24,2.89-1.81,5.56-3.85,7.99-6.13,2.43-2.28,4.45-4.48,6.06-6.59l4.34-5.62c1.35-1.98,2.36-3.73,3-5.26.65-1.53,1.09-2.88,1.34-4.04.24-1.16.38-2.13.41-2.91.03-.78.11-1.38.23-1.79l-9.15,12.06ZM108.17,92.48c-.4,2.66-1.16,4.94-2.27,6.85-1.11,1.91-2.8,3.07-5.08,3.47-.74.14-1.46.24-2.17.31-.71.07-1.49.03-2.36-.1-.86-.14-1.85-.37-2.96-.72-1.07-.33-2.31-.82-3.71-1.46.54-.71,1.07-1.42,1.59-2.17,1.42-2.08,2.83-4.11,4.25-6.08l2.4-3.68.74-.72c.36-.54.68-1.07.99-1.58l8.99-11.92c0,2.93.03,5.96.09,9.1.06,3.14-.11,6.03-.51,8.69"/>
      <path class="cls-3" d="M27.83,29.28c5.53,2.04,9.61,4.1,12.25,6.19,2.63,2.09,4.3,4.15,5,6.19.7,2.04.68,4.08-.07,6.12-.75,2.04-1.67,4.03-2.76,5.97-1.1,1.94-2.15,3.84-3.16,5.68-1.01,1.85-1.47,3.59-1.38,5.24-4.74-1.84-8.19-3.71-10.34-5.61-2.15-1.89-3.51-3.81-4.08-5.75-.57-1.94-.55-3.91.07-5.9.61-1.99,1.34-3.98,2.17-5.97.83-1.99,1.56-4.01,2.17-6.05.61-2.04.66-4.08.13-6.12"/>
    </g>
  </g>
</svg>